<?xml version="1.0" encoding="UTF-8"?>
<svg id="Capa_1" data-name="Capa 1" xmlns="http://www.w3.org/2000/svg" viewBox="0 0 254.1 327.36">
  <defs>
    <style>
      .cls-1 {
        fill: #1d1d1b;
        stroke-width: 0px;
      }
    </style>
  </defs>
  <path class="cls-1" d="m52.5,264.67c.18-.08.22-.1.22-.1,0,0-.22.08-.22.1Z"/>
  <path class="cls-1" d="m253.94,75.14c-1.38-21.42-15.38-34.99-19.07-38.36,1.6-.76,6.37-3.27,8.79-8.79,1.64-3.74,1.42-7.06,1.29-8.79-.61-7.77-5.48-12.98-7.3-14.74-2.98,2.48-8.22,6.3-15.54,8.6-13.8,4.33-22.3-.74-40.54,1.03-4.21.41-13.28,1.29-21.67,4.97-19.15,8.39-28.29,28.51-32.31,40.37-8-29.26-21.64-37.86-28.52-40.86-4.73-2.06-10.44-2.7-21.86-3.86-23.31-2.35-32.06,1.01-45.19-4.71-6.79-2.96-11.66-7.01-14.72-10-1.99,2.89-5.08,8.37-5.29,15.57-.08,2.64-.1,6.32,2.04,10.29,2.65,4.92,6.97,7.16,8.68,7.93C21.23,34.78-.5,49.78,0,76.21c.38,19.66,12.9,37.56,31.79,45.29-4.72,7.39-12.18,21.26-14.02,39.93-2.97,30.19,10.76,52.66,16.73,62.43,12.88,21.08,29.64,33.39,40.24,39.83-10.11.52-22.25,1.13-22.25.98l-1.93,1.45c-.14.1-.41.43-.41.43v2.25s.31.39.5.48l2.45,1.22c.07.04.15.06.23.34h39.68c-1.7,3.82-4.65,9.62-9.75,15.46-4.25,4.87-8.62,8.2-12,10.39.34,2.31,1.62,8.69,7.07,13.71,9.68,8.91,23.21,4.95,23.91,4.74.45.73,7.66,12.02,21.42,12.19,14.18.18,21.71-11.63,22.07-12.21,2.2.8,11.44,3.89,20.32-.71,5.29-2.74,12.69-9.37,11.59-15.16-.03-.18,0-.34-.11-.48-6.99-8.36-13.97-16.71-20.96-25.07l1.63-2.41c.1-.15.44-1.45.44-1.45h16.13s4.46,5.3,4.56,5.4l4.39,5.31,2.81,2.79,4.61.07.29-5.49-5.01-5.64c-.35-.34,1.52-1.73,1.52-1.73l8.23-.09s2.97-.08,3.07-.18l2.12-1.64-4.27-4.75c-.1-.11-.25-.18-.4-.04h-10.03c-3.35-.21-6.7-.27-10.06-.33,8.82-6.02,21.55-16.09,33.41-31.52,9.84-12.81,22.33-29.05,24.64-52.93,2.47-25.52-8.04-45.59-13.5-54.43,3.97-1.24,16.83-5.81,25.5-19.07,8.24-12.62,7.61-25.33,7.29-30.43Zm-134.33,39.07c-.13,1.58-.17,3.44-.03,5.5.19,2.69.42,6.02,2.14,9.86.65,1.45,1.83,3.65,3.9,5.97,1.02,1.14,2.83,1.1,3.79-.08,1.95-2.39,3.05-4.61,3.66-6.1,1.48-3.59,1.71-6.66,1.93-9.64.14-1.88.14-3.6.08-5.1-.08-1.78,1.7-3.07,3.37-2.44,2.16.81,4.79,2.19,7.27,4.54,2.95,2.81,4.47,5.87,5.25,7.88.22.58.21,1.23-.02,1.81-1.17,2.92-3.3,7.09-7.15,11.1-5.68,5.91-12.08,8.33-15.51,9.32-.42.12-.86.13-1.28.03-3.65-.86-11.03-3.19-17.5-9.78-4.33-4.42-6.62-9.08-7.83-12.22-.22-.57-.22-1.2,0-1.78.75-2.03,2.69-6.11,7.19-8.94,2.97-1.86,5.92-2.47,8.1-2.63,1.52-.11,2.77,1.18,2.65,2.7Zm45.3-45.78c-6.54-2.75-15.12.48-18.98,8.21.13-2.87.9-12.05,8-19.71,7.88-8.51,20.03-11.38,30.64-8.57,15.02,3.98,20.71,17.69,21.43,19.5,4.33,10.96,2.88,24.89-6.07,34.29-11.6,12.18-31.82,12.52-43.43,2.79-6.67-5.59-8.91-13.17-9.71-16.93.49.81,4.11,6.61,10.57,7.29,7.68.8,15.52-6.05,15.64-14.14.08-5.21-3.06-10.59-8.1-12.71Zm1.03,144.71c.39,4.61,1.11,8.72,1.93,12.21-2.58-.29-7.22-1.15-12.07-4.2-3.82-2.4-6.28-5.22-7.71-7.14,2.84-1.64,5.93-3.62,9.14-6,3.28-2.43,6.13-4.86,8.57-7.14-.22,3.56-.24,7.69.14,12.27Zm-80.21-13.36c2.44,2.29,5.29,4.71,8.57,7.14,3.21,2.38,6.3,4.36,9.14,6-1.16,1.72-3.57,4.81-7.71,7.14-5,2.82-9.74,2.99-11.86,2.93.79-3.25,1.51-7.13,1.86-11.54.35-4.4.27-8.35,0-11.68Zm20.71-53.36c1.93-.02,5.63.19,9.71,2.14,4.04,1.93,6.51,4.63,7.71,6.14-.62,1.34-2.72,5.44-7.57,8-4.38,2.31-8.48,2.03-10,1.86.48-2.66.86-5.89.86-9.57,0-3.25-.31-6.14-.71-8.57Zm40.64,18.72c-1.52.18-5.62.45-10-1.86-4.85-2.56-6.95-6.66-7.57-8,1.2-1.51,3.67-4.21,7.71-6.14,4.09-1.95,7.78-2.17,9.71-2.14-.4,2.43-.71,5.32-.71,8.57,0,3.68.37,6.91.86,9.57Zm-12.35,3.57c3.12,2.18,6.09,3.85,8.71,5.14-3.38,6.57-10.21,10.67-17.57,10.57-7.26-.1-13.89-4.27-17.14-10.79,2.94-1.23,6.3-2.87,9.86-5.07,3.32-2.06,6.13-4.18,8.43-6.14,2.09,1.98,4.65,4.15,7.71,6.29Zm-7.63,33.4c2.09,1.98,4.65,4.15,7.71,6.29,3.12,2.18,6.09,3.85,8.71,5.14-3.38,6.57-10.21,10.67-17.57,10.57-7.26-.1-13.89-4.27-17.14-10.79,2.94-1.23,6.3-2.87,9.86-5.07,3.32-2.06,6.13-4.18,8.43-6.14Zm-20.36-20.25c2.09,1.98,4.65,4.15,7.71,6.29,3.12,2.18,6.09,3.85,8.71,5.14-3.38,6.57-10.21,10.67-17.57,10.57-7.26-.1-13.89-4.27-17.14-10.79,2.94-1.23,6.3-2.87,9.86-5.07,3.32-2.06,6.13-4.18,8.43-6.14Zm-8.43,44.53c3.32-2.38,6.13-4.84,8.43-7.11,2.09,2.29,4.65,4.8,7.71,7.27,3.12,2.52,6.09,4.46,8.71,5.95-3.38,7.6-10.21,12.35-17.57,12.23-7.26-.12-13.89-4.94-17.14-12.48,2.94-1.42,6.3-3.32,9.86-5.87Zm4.2,27.59c0-.81.7-1.44,1.5-1.35,2.9.32,8.5.39,13.94-3,2.77-1.72,4.66-3.82,5.89-5.5.51-.7,1.51-.76,2.1-.13,1.74,1.85,4.42,4.2,8.21,5.99,5.51,2.59,10.63,2.72,13.64,2.5.78-.06,1.44.55,1.46,1.33.06,3.02.11,6.04.17,9.06.01.76-.6,1.39-1.36,1.38-14.73-.06-29.47-.13-44.2-.19-.75,0-1.35-.61-1.35-1.36v-8.72Zm43.44-10.97c-7.26-.1-13.89-4.27-17.14-10.79,2.94-1.23,6.3-2.87,9.86-5.07,3.32-2.06,6.13-4.18,8.43-6.14,2.09,1.98,4.65,4.15,7.71,6.29,3.12,2.18,6.09,3.85,8.71,5.14-3.38,6.57-10.21,10.67-17.57,10.57Zm.69-39.15c-7.26-.1-13.89-4.27-17.14-10.79,2.94-1.23,6.3-2.87,9.86-5.07,3.32-2.06,6.13-4.18,8.43-6.14,2.09,1.98,4.65,4.15,7.71,6.29,3.12,2.18,6.09,3.85,8.71,5.14-3.38,6.57-10.21,10.67-17.57,10.57Zm-66.07-122.73c.57,7.97,7.98,14.12,15.64,14.14,8.39.03,13.33-7.33,13.71-7.93-1.04,3.24-4.27,11.76-12.86,17.57-10.78,7.28-26.77,8.1-38.57-1.07-10.72-8.33-15.58-23.04-10.93-36,5.38-15,20.49-19.25,21.43-19.5,16.52-4.35,29.11,7.13,30.64,8.57,7.51,7.08,9.61,15.67,10.26,19.04-4.96-9.05-15.18-12.17-22.04-8.54-4.82,2.55-7.67,8.26-7.29,13.71Zm-52.37,23.43c-3.84-4.1-11.29-12.28-13.65-25.46-2.33-13.02,1.64-23.42,3.59-27.69,6.04-13.22,16.35-19.66,20-21.71-1.42.04-3.65-.12-6-1.29-5.79-2.87-7.09-9.33-7.26-10.23,2.48.53,6.38,1.28,11.19,1.87,13.23,1.61,19.6.28,29.49,1.07,8.48.68,17.33,2.57,22.86,5.14,20.48,9.52,27.7,34.6,30.07,45.21-1.72-4.55-10.57-26.63-33.11-34.82-7.05-2.56-13.59-3.1-18.68-2.96v8.57c-2.96.35-15.85,2.21-24.93,13.36-1.69,2.07-7.92,9.95-8.17,21.24-.04,1.67.04,3.93.53,6.54,2.95,15.78,17,24.61,20.57,26.86,3.71,2.33,7.52,4.72,13.09,5.77,3.8.72,6.62.47,14.91,1.51,2.57.32,4.67.64,6,.86-1.61.82-4.02,1.9-7.07,2.79,0,0-6.65,1.92-14.57,1.5-23.05-1.23-38.87-18.14-38.87-18.14Zm4.52,30.28c1.65-5.29,4.91-8.52,6.43-9.86,5.06,1.74,10.92,3.33,17.48,4.41,16.19,2.67,30.12,1.16,39.95-.84,1.66,2.94,6.53,12.45,4.71,25-2.04,14.05-11.06,22.26-13.43,24.29.21-16.91-9.6-31.77-24-37-15.78-5.73-29.94,2.68-31.86,3.86-.31-1.96-.61-5.61.71-9.86Zm37.61,111.28c-4.31-2.21-10.22-5.82-16.03-11.5-6.34-6.2-10.09-12.44-12.26-16.81,2.03,4.07,6.78,5.94,10.61,4.64,3.16-1.07,5.69-4.31,5.19-7.74-.5-3.45-3.87-5.13-4.24-5.31-3.4-1.63-7.96-.77-11.32,2.21.28-.63,2.63-5.74,8.02-6.86,5.35-1.11,9.66,2.56,11.32,3.98,3.63,3.13,5.07,6.94,6.13,10.61,1.6,5.54,3.43,14.59,2.59,26.76Zm2.81-25.28c-2.45-13.63-13.2-21.9-22.35-20.66-7.84,1.06-12.35,8.8-13.08,10.09-2.15-1.97-6.54-6.54-8.71-13.86-1.55-5.21-1.34-9.72-1-12.43,7.51,7.46,17.84,10.23,26.29,6.86,7.15-2.86,14.96-10.93,13.14-18.86-1.1-4.8-5.7-9.43-11.14-10-.77-.08-5.62-.59-8.57,2.86-2.96,3.46-2.84,9.54.86,12.86,3.84,3.45,9.19,1.79,9.43,1.71-1.47,1.79-5.2,5.81-10.86,6.57-9.7,1.31-19.27-7.75-20.57-16.57-1.78-12.04,11.8-24.05,24.86-24.86,13.12-.81,26.33,9.64,29.71,25.43.44,12.69-.13,22.01.29,28.86.22,3.62.64,9.05-2.29,14.71-1.8,3.49-4.23,5.85-6,7.29Zm16.82,29.8c-3.76,0-6.71.5-9.81-2.57-.57-.56-2.78-2.76-2.29-6.72.45-3.66,3.37-5.68,3.86-6,1.47,2.07,3.74,4.79,7.07,7.35,3.9,3.01,7.7,4.61,10.31,5.48-4.21,1.65-6.92,2.46-9.13,2.46Zm8.9,57.2c-1.54.46-5.36,1.37-9.86,0-5.93-1.8-8.9-6.3-9.64-7.5,3.75-3.41,8.18-8.06,12.43-14.14,3.82-5.47,6.49-10.67,8.36-15h10.07c-.95,5.36-2.29,11.29-4.21,17.64-2.17,7.18-4.66,13.53-7.14,19Zm24.57,9.86c-9.89-.4-16.2-6.11-17.71-7.57,2.47-5.58,4.96-12.15,7.07-19.64,1.98-7.03,3.25-13.53,4.07-19.29h16.29c.9,6.13,2.12,12.74,3.77,19.73,1.71,7.22,3.65,13.87,5.66,19.91-1.45,1.29-8.52,7.29-19.14,6.86Zm35.02-31.5c4.25,6.08,8.68,10.73,12.43,14.14-.74,1.2-3.71,5.7-9.64,7.5-4.5,1.37-8.31.46-9.86,0-2.46-5.43-4.94-11.74-7.1-18.86-1.94-6.41-3.3-12.39-4.26-17.79h10.07c1.87,4.33,4.54,9.53,8.36,15Zm12.93-38.65c-3.1,3.07-6.05,2.58-9.81,2.57-2.21,0-4.93-.82-9.13-2.46,2.7-1.03,6.31-2.74,10.06-5.61,3.29-2.51,5.67-5.12,7.31-7.23.49.32,3.4,2.34,3.86,6,.49,3.96-1.72,6.16-2.29,6.72Zm25.36-11.64c-5.81,5.68-11.72,9.29-16.03,11.5-.84-12.16,1-21.22,2.59-26.76,1.06-3.68,2.5-7.49,6.13-10.61,1.65-1.42,5.96-5.09,11.32-3.98,5.39,1.12,7.74,6.23,8.02,6.86-3.36-2.99-7.91-3.84-11.32-2.21-.37.18-3.74,1.85-4.24,5.31-.5,3.43,2.02,6.67,5.19,7.74,3.83,1.3,8.58-.57,10.61-4.64-2.16,4.36-5.92,10.61-12.26,16.81Zm29.02-66.18c-1.3,8.82-10.87,17.88-20.57,16.57-5.65-.76-9.39-4.78-10.86-6.57.24.08,5.59,1.73,9.43-1.71,3.69-3.32,3.82-9.4.86-12.86-2.95-3.44-7.8-2.94-8.57-2.86-5.45.57-10.04,5.2-11.14,10-1.81,7.93,5.99,16,13.14,18.86,8.44,3.37,18.78.6,26.29-6.86.37,2.65.72,7.63-1.19,13.39-2.27,6.87-6.48,11.09-8.53,12.89-.9-1.55-5.33-8.86-13.08-10.09-9.42-1.5-20.57,6.49-23.82,20.13-1.37-1.57-3.26-4.07-4.71-7.5-2.43-5.75-2.08-10.81-2.1-13.96-.05-8.3-.01-17.96.29-28.86,3.38-15.79,16.6-26.24,29.71-25.43,13.05.81,26.63,12.82,24.86,24.86Zm-4.04-23.18c-1.5-1.11-16.15-11.61-32.71-6.14-15.32,5.06-25.78,21.62-24.14,40.14-2.22-2.1-11.46-11.31-12.46-26.26-.85-12.61,4.66-21.73,6.59-24.63,8.57,2.06,21.22,3.93,36.16,1.9,7.15-.97,13.39-2.64,18.57-4.43,1.28.77,5.16,3.31,7.25,8.45,2.06,5.06,1.12,9.52.75,10.98Zm19.63-65.35c-.37,2.05-1.89,9.63-7.3,17.74-5.25,7.87-11.38,12.07-15.7,14.97-5.97,4-13.72,9.2-25.01,10.18-12.46,1.08-22.19-3.57-26.64-6.11,2.28.09,5.53.15,9.43,0,7.97-.31,13.77-.53,19.93-2.5,3.6-1.15,13.96-4.47,20.35-14.35,4.01-6.2,4.91-12.59,5.33-15.61.35-2.46.87-6.39.06-11.29-1.43-8.74-6.09-14.53-7.7-16.49-8.9-10.8-21.52-12.9-24.93-13.36v-8.57c-5.15-.08-11.66.5-18.68,2.96-22.6,7.91-32.4,28.87-34.65,34.07,2.15-8.34,10.2-35.6,31.62-44.46,5.21-2.16,13.91-4.34,22.86-5.14,9.8-.88,15.52.9,26.95-.68,6.11-.84,10.98-2.19,14.01-3.14.05,1.31,0,5.22-2.74,8.15-1.54,1.64-3.37,2.41-4.79,2.96-1.31.5-3.36,1.12-6,1.29,3.65,2.06,13.96,8.49,20,21.71,1.86,4.07,5.96,14.59,3.59,27.69Z"/>
</svg>